<?xml version="1.0" standalone="no"?>
<!DOCTYPE svg PUBLIC "-//W3C//DTD SVG 20010904//EN"
 "http://www.w3.org/TR/2001/REC-SVG-20010904/DTD/svg10.dtd">
<svg version="1.0" xmlns="http://www.w3.org/2000/svg"
 width="114.000000pt" height="114.000000pt" viewBox="0 0 114.000000 114.000000"
 preserveAspectRatio="xMidYMid meet">
<metadata>
Created by potrace 1.11, written by Peter Selinger 2001-2013
</metadata>
<g transform="translate(0.000000,114.000000) scale(0.100000,-0.100000)"
fill="#000000" stroke="none">
<path d="M913 1090 c-35 -9 -65 -15 -68 -12 -3 3 -5 1 -5 -5 0 -6 -10 -13 -23
-17 -46 -11 -205 -128 -296 -216 -55 -54 -113 -101 -138 -112 -44 -19 -149
-28 -171 -14 -7 4 -12 4 -12 -1 0 -4 -19 -29 -43 -55 -23 -25 -49 -55 -58 -66
-18 -21 -99 -155 -99 -163 0 -3 50 -4 110 -4 l111 1 19 31 c23 39 37 47 77 48
21 1 33 -3 33 -12 0 -7 -8 -13 -18 -13 -22 0 -48 -27 -54 -55 -2 -11 -12 -24
-23 -30 -49 -26 -76 -50 -114 -106 -23 -33 -43 -69 -44 -80 -2 -12 -9 -24 -16
-29 -8 -4 -15 -25 -16 -46 -5 -58 -11 -89 -20 -103 -6 -10 -2 -10 16 0 13 7
42 14 63 15 21 1 42 7 45 12 7 11 81 44 81 36 0 -15 62 33 105 82 67 77 146
154 156 154 5 0 9 -10 9 -23 0 -16 -12 -31 -38 -47 l-38 -24 0 -103 c1 -88 3
-102 16 -98 26 10 121 69 143 90 12 11 41 37 66 58 44 38 44 40 42 97 -3 85
19 128 102 198 15 12 30 22 34 22 14 0 136 139 175 200 63 100 72 114 75 125
44 169 49 233 18 264 -22 22 -123 23 -202 1z"/>
<path d="M85 280 c-4 -6 -3 -16 3 -22 6 -6 12 -6 17 2 4 6 3 16 -3 22 -6 6
-12 6 -17 -2z"/>
<path d="M235 70 c-3 -5 1 -10 10 -10 9 0 13 5 10 10 -3 6 -8 10 -10 10 -2 0
-7 -4 -10 -10z"/>
</g>
</svg>
